<svg width="264" height="79" viewBox="0 0 264 79" fill="none" xmlns="http://www.w3.org/2000/svg">
<path d="M-4.05312e-06 77.76V3.8147e-06H16.896C22.656 3.8147e-06 27.2 0.896004 30.528 2.688C33.92 4.416 36.32 7.04 37.728 10.56C39.2 14.08 39.936 18.464 39.936 23.712V52.32C39.936 57.824 39.2 62.464 37.728 66.24C36.32 70.016 33.984 72.896 30.72 74.88C27.52 76.8 23.2 77.76 17.76 77.76H-4.05312e-06ZM10.848 69.984H16.992C20.96 69.984 23.776 69.216 25.44 67.68C27.104 66.144 28.096 63.904 28.416 60.96C28.8 58.016 28.992 54.464 28.992 50.304V25.056C28.992 21.024 28.736 17.76 28.224 15.264C27.712 12.768 26.592 10.944 24.864 9.79201C23.136 8.64001 20.416 8.06401 16.704 8.06401H10.848V69.984ZM57.729 78.528C55.553 78.528 53.857 77.952 52.641 76.8C51.425 75.648 50.561 74.208 50.049 72.48C49.601 70.752 49.377 68.992 49.377 67.2V22.272H59.649V64.128C59.649 66.112 59.937 67.68 60.513 68.832C61.089 69.92 62.273 70.464 64.065 70.464C65.217 70.464 66.401 70.144 67.617 69.504C68.897 68.8 70.113 67.968 71.265 67.008V22.272H81.537V77.76H71.265V72.288C69.473 74.016 67.425 75.488 65.121 76.704C62.881 77.92 60.417 78.528 57.729 78.528ZM111.914 78.528C109.93 78.528 108.138 78.048 106.538 77.088C105.002 76.064 103.658 74.944 102.506 73.728V77.76H92.2342V3.8147e-06H102.506V26.688C103.722 25.28 105.162 24.064 106.826 23.04C108.554 22.016 110.602 21.504 112.97 21.504C115.85 21.504 118.122 22.272 119.786 23.808C121.514 25.28 122.794 27.168 123.626 29.472C124.458 31.712 125.002 34.016 125.258 36.384C125.514 38.688 125.642 40.672 125.642 42.336V55.776C125.642 59.68 125.258 63.392 124.49 66.912C123.722 70.368 122.346 73.184 120.362 75.36C118.378 77.472 115.562 78.528 111.914 78.528ZM109.802 70.464C111.594 70.464 112.874 69.824 113.642 68.544C114.41 67.2 114.89 65.408 115.082 63.168C115.274 60.928 115.37 58.464 115.37 55.776V42.336C115.37 40.032 115.242 37.92 114.986 36C114.73 34.016 114.186 32.448 113.354 31.296C112.522 30.144 111.21 29.568 109.418 29.568C108.074 29.568 106.794 29.856 105.578 30.432C104.426 31.008 103.402 31.648 102.506 32.352V67.968C103.402 68.672 104.458 69.28 105.674 69.792C106.954 70.24 108.33 70.464 109.802 70.464ZM150.244 78.528C146.148 78.528 142.916 77.696 140.548 76.032C138.18 74.368 136.484 72 135.46 68.928C134.5 65.856 134.02 62.24 134.02 58.08V41.952C134.02 37.792 134.5 34.176 135.46 31.104C136.484 28.032 138.18 25.664 140.548 24C142.916 22.336 146.148 21.504 150.244 21.504C154.34 21.504 157.54 22.336 159.844 24C162.212 25.664 163.876 28.032 164.836 31.104C165.86 34.176 166.372 37.792 166.372 41.952V58.08C166.372 62.24 165.86 65.856 164.836 68.928C163.876 72 162.212 74.368 159.844 76.032C157.54 77.696 154.34 78.528 150.244 78.528ZM150.244 70.944C152.228 70.944 153.604 70.368 154.372 69.216C155.204 68.064 155.684 66.56 155.812 64.704C156.004 62.784 156.1 60.8 156.1 58.752V41.376C156.1 39.264 156.004 37.28 155.812 35.424C155.684 33.568 155.204 32.064 154.372 30.912C153.604 29.696 152.228 29.088 150.244 29.088C148.26 29.088 146.852 29.696 146.02 30.912C145.188 32.064 144.676 33.568 144.484 35.424C144.356 37.28 144.292 39.264 144.292 41.376V58.752C144.292 60.8 144.356 62.784 144.484 64.704C144.676 66.56 145.188 68.064 146.02 69.216C146.852 70.368 148.26 70.944 150.244 70.944ZM182.961 77.76L172.017 22.272H182.385L189.201 66.912L196.113 22.272H206.097L195.537 77.76H182.961ZM227.866 78.528C223.322 78.528 219.866 77.632 217.498 75.84C215.194 73.984 213.626 71.392 212.794 68.064C212.026 64.736 211.642 60.864 211.642 56.448V43.68C211.642 39.008 212.058 35.04 212.89 31.776C213.722 28.448 215.29 25.92 217.594 24.192C219.962 22.4 223.386 21.504 227.866 21.504C231.898 21.504 235.002 22.176 237.178 23.52C239.418 24.8 240.954 26.752 241.786 29.376C242.618 31.936 243.034 35.136 243.034 38.976V42.24H233.722V38.88C233.722 36.448 233.562 34.528 233.242 33.12C232.922 31.712 232.346 30.688 231.514 30.048C230.682 29.408 229.498 29.088 227.962 29.088C226.298 29.088 225.018 29.472 224.122 30.24C223.226 31.008 222.618 32.32 222.298 34.176C222.042 35.968 221.914 38.432 221.914 41.568V59.04C221.914 63.776 222.362 66.944 223.258 68.544C224.154 70.144 225.754 70.944 228.058 70.944C229.786 70.944 231.034 70.56 231.802 69.792C232.634 68.96 233.146 67.808 233.338 66.336C233.594 64.864 233.722 63.2 233.722 61.344V56.832H243.034V60.672C243.034 64.384 242.586 67.584 241.69 70.272C240.858 72.96 239.322 75.008 237.082 76.416C234.906 77.824 231.834 78.528 227.866 78.528ZM222.202 16.608L213.85 3.8147e-06H221.722L227.29 11.232L232.858 3.8147e-06H240.73L232.282 16.608H222.202ZM252.839 77.76V22.272H263.111V77.76H252.839ZM252.839 14.016V3.26401H263.111V14.016H252.839Z" fill="white"/>
</svg>
